<svg id="Layer_1" data-name="Layer 1" xmlns="http://www.w3.org/2000/svg" viewBox="0 0 1125 2436">
    <defs>
        <style>.cls-1{opacity:0.14;}.cls-2{fill:#ff9a7b;}</style>
    </defs>
    <title>bg_login</title>
    <path class="cls-1"
        d="M23.11,1450.58a1,1,0,0,0-.43-.75c-.7-.77-1.43-1.52-2.17-2.25-.49-.49-2.09-2.6-3-2.6a1,1,0,0,0,.43.75c.7.77,1.42,1.52,2.17,2.26C20.59,1448.47,22.19,1450.58,23.11,1450.58Z" />
    <path class="cls-1"
        d="M22.51,1452.87a2.68,2.68,0,0,0-.85-1.18q-1.86-2-3.78-3.87T14,1444a2.62,2.62,0,0,0-1.18-.85,2.75,2.75,0,0,0,.86,1.17q1.85,2,3.77,3.87c1.27,1.28,2.56,2.55,3.87,3.79A2.73,2.73,0,0,0,22.51,1452.87Z" />
    <path class="cls-1"
        d="M22.7,1449.89a22.19,22.19,0,0,0-1.82-2.23c-.43-.44-1.46-1.82-2.22-1.82a23.54,23.54,0,0,0,1.81,2.23C20.91,1448.51,21.94,1449.89,22.7,1449.89Z" />
    <path class="cls-1"
        d="M21.82,1450.87a1.13,1.13,0,0,0-.45-.77q-1.11-1.21-2.28-2.37c-.49-.49-2.19-2.72-3.13-2.72a1.06,1.06,0,0,0,.45.77c.73.81,1.49,1.6,2.27,2.37C19.18,1448.64,20.88,1450.87,21.82,1450.87Z" />
    <path class="cls-1"
        d="M22.8,1449.62c.61,0-.4-1-.41-1-.37-.4-1.51-1.94-2.14-1.94s.39,1,.41,1C21,1448.08,22.16,1449.62,22.8,1449.62Z" />
    <path class="cls-1"
        d="M22,1451.9a1.89,1.89,0,0,0-.69-1c-1-1.11-2.09-2.19-3.16-3.26s-2.16-2.14-3.26-3.17a1.89,1.89,0,0,0-1-.69,1.89,1.89,0,0,0,.69,1c1,1.11,2.09,2.19,3.16,3.26s2.15,2.14,3.26,3.17A1.89,1.89,0,0,0,22,1451.9Z" />
    <path class="cls-1" d="M23.7,1449.31c.47,0-1.12-2.06-1.69-2.06S23.13,1449.31,23.7,1449.31Z" />
    <path class="cls-1"
        d="M23.3,1449.67c.66,0-.52-1.1-.53-1.11-.42-.45-1.78-2.29-2.49-2.29s.52,1.1.53,1.1C21.23,1447.83,22.59,1449.67,23.3,1449.67Z" />
    <path class="cls-1"
        d="M22.13,1450.34a.82.82,0,0,0-.33-.66c-.59-.66-1.2-1.29-1.83-1.91-.46-.46-1.74-2.16-2.57-2.16a.81.81,0,0,0,.34.66c.58.66,1.19,1.29,1.82,1.91C20,1448.64,21.3,1450.34,22.13,1450.34Z" />
    <path class="cls-2"
        d="M1215.64,733.63C1073.82,955.57,861.37,731,861.37,731S591.22,422.75,379.87,576.32s-458.44-37-458.44-37c-179.64-279-118-794.23-118-794.23L681.92-408.65,1302.34-268l101.12,443.25Z" />
</svg>