<svg id="Layer_1" data-name="Layer 1" xmlns="http://www.w3.org/2000/svg" viewBox="0 0 512 512"><defs><style>.cls-1{fill:#dc4e41;}.cls-2{fill:#fff;}</style></defs><title>ic_google</title><g id="Group_20" data-name="Group 20"><circle class="cls-1" cx="256" cy="256" r="206.97"/></g><g id="Group_22" data-name="Group 22"><path id="Path_14" data-name="Path 14" class="cls-1" d="M121.73,255.92a85.31,85.31,0,0,0,57.54,80.68,84.17,84.17,0,0,0,92-24.51,96.45,96.45,0,0,0,17.27-68.25c-27.23-.25-54.46-.16-81.6-.12v29c16.33.45,32.59.25,48.89.57a47.17,47.17,0,0,1-27.71,32.31,53.9,53.9,0,0,1-40.24-100c1.29-.52,2.6-1,3.93-1.4a59.89,59.89,0,0,1,50.44,9.85c7.59-7.09,14.67-14.66,21.64-22.33a85.78,85.78,0,0,0-142.21,64.17Z"/><path id="Path_15" data-name="Path 15" class="cls-1" d="M341.53,219.24c-.09,8.17-.17,16.25-.21,24.37-8.17.08-16.25.12-24.37.16v24.29c8.17,0,16.26.08,24.37.16.08,8.17.08,16.22.16,24.37h24.29c0-8.17.08-16.25.17-24.41l24.37-.12V243.77c-8.17,0-16.26-.08-24.37-.16,0-8.17-.13-16.26-.17-24.37Z"/><g id="Group_21" data-name="Group 21"><path id="Path_16" data-name="Path 16" class="cls-2" d="M121.73,255.92a85.78,85.78,0,0,1,142.21-64.18c-7,7.66-14.07,15.23-21.64,22.33a59.89,59.89,0,0,0-50.44-9.86A53.9,53.9,0,0,0,224.24,307q2-.63,3.93-1.41a47.15,47.15,0,0,0,27.69-32.3c-16.33-.33-32.59-.13-48.89-.58,0-9.69-.08-19.36,0-29.05,27.23,0,54.46-.12,81.61.12a96.46,96.46,0,0,1-17.37,68.25,84.17,84.17,0,0,1-92,24.51A85.29,85.29,0,0,1,121.73,255.92Z"/><path id="Path_17" data-name="Path 17" class="cls-2" d="M341.53,219.24h24.23c0,8.17.12,16.25.16,24.37,8.17.08,16.26.12,24.37.16v24.29l-24.37.12c-.08,8.17-.12,16.26-.16,24.41H341.47c-.08-8.17-.08-16.25-.16-24.37-8.17-.08-16.26-.12-24.37-.16v-24.3q12.15,0,24.37-.17C341.36,235.49,341.44,227.35,341.53,219.24Z"/></g></g></svg>