<svg id="Layer_1" data-name="Layer 1" xmlns="http://www.w3.org/2000/svg" viewBox="0 0 342.39 410.35"><defs><style>.cls-1{fill:#ff9a7b;}</style></defs><title>ic_username</title><g id="user"><path id="Path_27" data-name="Path 27" class="cls-1" d="M253.4,248.42a95.62,95.62,0,0,0,69.88-28.94,95.63,95.63,0,0,0,28.94-69.85,95.64,95.64,0,0,0-28.94-69.86,98.78,98.78,0,0,0-139.69,0l0,0a95.64,95.64,0,0,0-28.94,69.86,95.61,95.61,0,0,0,28.94,69.87A95.68,95.68,0,0,0,253.4,248.42Z" transform="translate(-84.8 -50.83)"/><path id="Path_28" data-name="Path 28" class="cls-1" d="M426.29,366.3A245.2,245.2,0,0,0,423,340.38a203.64,203.64,0,0,0-6.36-26.14A128.89,128.89,0,0,0,405.88,290a91.62,91.62,0,0,0-16.15-21.06,71.13,71.13,0,0,0-23.21-14.58A80.25,80.25,0,0,0,336.89,249a30.1,30.1,0,0,0-16.06,6.82c-4.82,3.13-10.44,6.77-16.81,10.79a96.1,96.1,0,0,1-21.64,9.54,84,84,0,0,1-52.95,0,96,96,0,0,1-21.62-9.54c-6.22-4-11.86-7.62-16.81-10.79A30,30,0,0,0,175,249a80.27,80.27,0,0,0-29.64,5.36,71.16,71.16,0,0,0-23.09,14.6,91.84,91.84,0,0,0-16.16,21,129.79,129.79,0,0,0-10.71,24.28A203.68,203.68,0,0,0,89,340.38a242.52,242.52,0,0,0-3.29,25.92c-.54,7.84-.82,16-.82,24.27a68.1,68.1,0,0,0,20.22,51.53,72.84,72.84,0,0,0,52.14,19H354.76a72.83,72.83,0,0,0,52.13-19,68.07,68.07,0,0,0,20.24-51.53c0-8.27-.28-16.41-.82-24.27Z" transform="translate(-84.8 -50.83)"/></g></svg>