<?xml version="1.0" encoding="utf-8"?>
<!-- Generator: Adobe Illustrator 24.0.0, SVG Export Plug-In . SVG Version: 6.00 Build 0)  -->
<svg version="1.1" id="Layer_1" xmlns="http://www.w3.org/2000/svg" xmlns:xlink="http://www.w3.org/1999/xlink" x="0px" y="0px"
	 viewBox="0 0 512 512" style="enable-background:new 0 0 512 512;" xml:space="preserve">
<style type="text/css">
	.st0{fill:#4F292C;}
	.st1{fill:#FF5757;}
	.st2{fill:#FF9C71;}
	.st3{fill:#FEFEFE;}
	.st4{fill:#FDFDFD;}
	.st5{fill:#FFD176;}
</style>
<g>
	<path class="st0" d="M243.1,480.5c-59.4,0-118.9,0-178.3,0c-25.6,0-35.1-9.6-35.1-35.1c0-86,0.2-172-0.2-258
		c-0.1-20.1,7.6-34.6,24.5-45.2c53.8-33.8,107.5-67.9,161.2-102c18.8-11.9,37.1-11.4,55.7,0.4c52.6,33.4,105.3,66.7,158,99.9
		c18.3,11.6,27,28.3,27,49.7c0,26.6,0.1,53.1-0.2,79.7c-0.1,7,0.6,11.3,9.3,13c12.7,2.4,16.8,13.2,17.3,24.9
		c0.8,19.9-6.1,37.4-19.8,51.6c-5.2,5.4-6.8,10.7-6.7,17.9c0.4,24,0.3,48.1,0,72.1c-0.3,22.4-9.1,31.1-31.8,31.1
		C363.7,480.5,303.4,480.5,243.1,480.5z"/>
	<path class="st1" d="M441.7,230.6c0,13.1-0.5,26.2,0.2,39.2c0.4,9-3.3,12.3-11.7,11.8c-0.8,0-1.7,0-2.5,0
		c-27.4,0.9-27.7,0.3-31-26.8c-2.5-20.9-9.7-39.5-25.3-55c-11.1-11-14.6-27.3-22.3-40.8c-2.4-4.2-3.2-10.5-9.6-10.3
		c-5.3,0.1-7.1,5.2-9.6,9.1c-3.8,6.1-7.8,12-11.7,18c-11.7,18-30.1,17.1-40.1-2c-5.7-10.8-11.5-21.6-17.4-32.3c-2.1-3.9-3.2-9-9.3-9
		c-7.1,0-7.3,6.2-9,10.5c-9.5,24.4-16,49.6-20,75.4c-1.1,6.8-3.6,11.5-8.8,15.8c-12.8,10.9-25.2,22.3-37.7,33.6
		c-5,4.5-9.3,6.6-16.7,3.4c-19.7-8.6-40.3-8.7-60.3-1.2c-10.9,4.1-19,1.7-29.3-2.8c-20-8.9-28.6-21.4-25.3-43.6
		c2-13.2,0.7-26.9,0.3-40.4c-0.4-12.3,5-21.2,14.9-27.4c55.1-34.9,110.3-69.8,165.6-104.5c12.2-7.6,24.6-7,36.9,0.7
		C314,85.4,365.8,118.5,418,151c16.9,10.5,24,25,23.7,44.2C441.6,207,441.7,218.8,441.7,230.6z"/>
	<path class="st2" d="M222.1,424.5c8.9-1.7,7.5-8.7,7.5-14.9c0.1-42.6-0.7-85.1,0.4-127.6c1.1-39.6,7.3-78.7,19.6-116.6
		c0.6-1.9,1.4-3.8,3.1-8.2c6.9,12.7,13.1,23.3,18.5,34.3c3.6,7.4,8.5,11.2,16.8,10c10.6-1.5,22.8,5.2,31.5-3.1
		c7.4-7,12-17.1,17.9-25.9c5.2,1.6,5.2,6.5,7,9.8c6.6,12.1,11.8,24.4,22.5,34.4c13.5,12.7,14.8,31.5,17,49.1
		c1.5,12.6,4.2,24.3,17.7,29.5c0.4,6.4-4.7,7.2-9,8.5c-16.8,5.3-35.7-2.6-43.7-18.5c-5.4-10.9-8.9-22.6-11.6-34.5
		c-0.9-4-1.3-8.1-4.5-13.4c-3.1,17.9,3,32.3,7,47c2,7.3,4.7,14.4,4.2,22.1c-0.7,10.7-5.5,15-16.3,14.2c-7.1-0.5-13.9-3.2-21-4.2
		c-9.7-1.3-16.6,1.5-18.7,11.9c-7,30.4-4.2,61.1-2.8,91.7c0.7,14.2,2.5,28.4,1.7,42.6c-22.2,4.9-44.5,4.2-66.8,0.4
		C217.8,450,215.7,437,222.1,424.5z"/>
	<path class="st3" d="M222.1,424.5c0,13.2-0.1,26.4-0.1,39.6c-1.1,0.6-1.9,1.5-3.3,1.5c-54.4-0.2-108.8,0.9-163.2-0.6
		c-7.5-1.3-10.6-6.2-10.6-13.3c0.1-22.7,0.4-45.3,0.6-68c9.2-6.9,21.1-7,30.9-12.8c7.1-4.2,12.4-11.4,21.1-12.7
		c14.9,5.4,30.3-2.9,45.5,1.4c5.3,1.5,10.4-2.5,13.7-7.4c1.8-2.8,4.4-6.6,1.3-9.1c-4-3.2-5.4,1.9-7.3,4.2c-5.2,6.4-11.1,8-16.8,1.3
		c-4.8-5.6-8.2-5.2-13.4-0.5c-6,5.5-12.6,8-15.6-3.4c8.7-17.5,16.6-35.4,18.7-55.1c0.4-3.8,2.2-7.1,5.1-9.7
		c11.7-0.9,22.6,2.7,32.8,7.6c7.4,3.5,12.1,1.9,17.8-3.3c11.9-10.9,23-22.9,35.3-31.3c0,23.8,0,47.7,0,71.5c0,4.6-2.8,5.5-6.5,5.6
		c-3.8,0.1-7.6,0.3-11.4,0.5c-4.7,0.3-8.7,2.2-8.5,7.4c0.2,5.8,4.6,7.5,9.9,7c0.4,0,0.8-0.1,1.3-0.1c17-0.5,17-0.5,14.1,17.7
		c-5.8-1.2-11.5-2.3-17.2-3.7c-5.3-1.3-9.7-0.2-11,5.4c-1.2,5.2,3,7.2,7.3,8.6c7.3,2.4,18-0.3,21.4,7.2c3.1,6.7,0.6,15.7,1.4,23.7
		C216,411,211.4,420.4,222.1,424.5z"/>
	<path class="st4" d="M285.4,325.2c2.3-11.9,10.9-13.7,20.9-12.7c5,0.5,9.9,1.9,14.8,3.1c18.6,4.6,23.7-0.3,19.1-18.8
		c-3.5-14.3-8.7-28.2-11.2-42.6c-1.3-7.6-4.8-21.6,2.9-22.7c9.4-1.3,6.7,12.7,9,20c3.6,11.6,6.1,23.7,12.1,34.4
		c9.7,17.3,32.7,21.5,48.6,9.2c14.7,0,29.4-0.3,44.1-0.1c20.6,0.3,25.4,6.6,20.4,26.8c-5.3,21.6-18.3,36.8-39.6,43.6
		c-28.6,9.1-57.8,10.4-87,2.7c-8.1-2.1-16.2-4.6-21.9-11.5c-2.4-8.4-5.6-16.1-11-23.2C301.1,325.9,294.9,321.9,285.4,325.2z"/>
	<path class="st4" d="M285.4,325.2c8.1-9.3,14-7.1,20.4,2.6c6,9,15.2,16.1,12,28.8c-5.3-3-6.9-8.1-8.3-13.5c-1.1-4.4-3.3-8.3-8.6-7
		c-5.7,1.5-7.3,6.9-4.9,11.1c7,12.4,6.6,22.2-2,34.8c-7.6,11.1,1.5,24.2,15.6,26.6c13,2.2,25-0.2,35.5-8.7c5.8-4.7,11-10.6,19-11.7
		c7.6-2.9,10.2,2.3,11.4,7.9c4.3,20.2,7.8,40.5,7.3,61.3c-0.1,5.5-1.7,8.4-8,8.4c-28.6-0.3-57.2,0-85.9-0.2c-1.4,0-2.3-0.9-3.3-1.6
		c-5.5-43.4-8.5-86.8-3-130.4C283.3,330.7,284.6,328,285.4,325.2z"/>
	<path class="st2" d="M285.9,464c28.2,0.1,56.4-0.1,84.7,0.5c8.3,0.2,9.1-2.5,8.9-10c-0.5-19.4-3.8-38.4-7.1-57.4
		c-0.8-4.9-1.7-9.2-8-8.9c15.1-4.1,30.9,0.2,46-4.3c7.2-2.2,14.9-2.9,21.9-5.6c7-2.7,9.7-2.3,9.5,6.1c-0.4,21.5,0.1,43-0.2,64.5
		c-0.1,13.5-3.8,17.1-17.6,17.2c-120.5,0.2-241,0.3-361.5,0.4c-2.4,0-4.8-0.9-7.2-1.4c48.8-0.2,97.6-0.4,146.4-0.7
		c6.7,0,13.5-0.1,20.2-0.2c15.2-2.5,30.3,2,45.5,0.3c4.5-0.5,9.4,2.1,13.2-3.9C282.9,456.9,282.7,464.7,285.9,464z"/>
	<path class="st5" d="M98.7,360.1c-13.9,8.5-26.6,19.2-43.3,22.1c-3.3,0.6-6.6,1-9.9,1.5c-2.7-9.9,5.9-8.3,10.6-9.9
		c5.5-1.9,13.2-2.1,11-10.3c-1.9-7.4-8.4-4.7-13.7-3.4c-4.2,1.1-8.7,1.9-8.6-4.9c0.1-4.9-1.2-10.8,7-10.1c2.1,0.2,4.2,0.1,6.3,0.1
		c5.1,0.1,9.6-0.8,9.7-7.1c0.1-5.6-4.6-7.6-8.6-7.1c-14.6,2-15.1-6.4-14.6-17.2c0.6-14.2,0.1-28.4,0.1-44.7
		c11.1,6.2,20.7,11.1,29.7,16.8c5.9,3.8,11.1,4.2,17.6,1.5c11.7-4.7,23.6-8.8,36.6-7.6c-4,23.2-6.8,46.8-23.2,65.6
		c-4.4,1.2-5-5.9-9.8-4.2C91,348.3,99.5,353.5,98.7,360.1z"/>
	<path class="st0" d="M35.9,181.5c4.1,85.8,2.4,171.3,0,256.8C35.9,352.7,35.9,267.1,35.9,181.5z"/>
	<path class="st1" d="M317.9,395.9c-4-0.4-9.7-0.1-11.2-5.1c-1.6-5.2,2.1-9.7,6.3-12.6c4.2-2.9,9.4-5.9,9.4,3.6
		c3.6-0.3,7.2-0.7,10.8-0.7c2.5,0,5.5,0.6,6.5,3c1.1,2.9-2.1,4.1-3.9,5.5C330.7,393.4,324.9,395.7,317.9,395.9z"/>
	<path class="st4" d="M145.1,164.9c5.6-16.9,12.3-22,25-19.5c11.4,2.2,17.3,10.9,16.8,25.8c-0.6,20-10.9,36.8-19.1,54.2
		c-1.6,3.4-4,3.6-7.2,1.9c-16-8.4-32.5-16.1-44.9-29.8c-10-11.1-11.2-22.9-3.8-31.8C120.2,155.9,130.7,155.5,145.1,164.9z"/>
	<path class="st0" d="M367.1,269.1c-0.4,5.1-1.4,10.2-7.2,10.2c-6.1,0-8.3-5.1-8.2-10.4c0.1-4.6,1.7-9.6,7.4-9.7
		C365.9,258.9,366.8,264.2,367.1,269.1z"/>
	<path class="st0" d="M313.8,269c-0.2,4.9-1.3,9.9-6.9,10.2c-6.2,0.4-8.5-4.7-8.5-10.1c0-5.2,1.8-10.4,8.3-10.1
		C312.7,259.3,313.5,264.3,313.8,269z"/>
	<path class="st0" d="M98.7,360.1c-1.8-2.3-4-4.3-5.3-6.8c-2.9-5.7-6.1-12.5,1.4-16.4c7.5-3.9,7.5,5.2,10.8,8.6
		c4.8,8.8,9.7,6.4,13.8-0.4c5.5-9.1,9.6-8.8,15.2,0.2c5.2,8.4,10.5,7.4,14.9-2.1c1.8-4.1,3.4-8.4,8.8-6.5c5.3,1.9,5.8,6.3,4.4,11.5
		c-3.4,12.3-16.9,19.6-28.9,14.4c-5-2.2-8.3-2.9-13.4-0.1C113,366.5,105.5,364,98.7,360.1z"/>
	<path class="st0" d="M155.8,304.5c6,1.2,7.7,6.1,7.4,11.3c-0.3,4.6-2.1,9.7-8.1,9.4c-6.6-0.3-7.9-6-7.7-11.1
		C147.6,309.5,149.5,304.9,155.8,304.5z"/>
	<path class="st0" d="M433.5,304.9c11.6,0.1,21.3,7.1,21.3,15.3c0,8.7-10.2,15.6-22.5,15.2c-12-0.3-20.9-7.2-20.4-15.9
		C412.3,311.2,421.7,304.8,433.5,304.9z"/>
	<path class="st0" d="M105.1,314.7c-1.3,5.3-2.4,10.4-8.2,10.3c-5.8-0.1-7.7-5.2-7.6-9.8c0.1-5,1.6-10.7,8.4-10.2
		C103.6,305.4,103.5,311.1,105.1,314.7z"/>
</g>
</svg>
